<?xml version="1.0" encoding="UTF-8" standalone="no"?>
<!DOCTYPE svg PUBLIC "-//W3C//DTD SVG 1.1//EN"
 "http://www.w3.org/Graphics/SVG/1.1/DTD/svg11.dtd">
<!-- Generated by graphviz version 2.30.1 (20130221.2233)
 -->
<!-- Title: %3 Pages: 1 -->
<svg width="2242pt" height="953pt"
 viewBox="0.00 0.00 2242.00 952.81" xmlns="http://www.w3.org/2000/svg" xmlns:xlink="http://www.w3.org/1999/xlink">
<g id="graph0" class="graph" transform="scale(1 1) rotate(0) translate(4 948.813)">
<title>%3</title>
<polygon fill="white" stroke="white" points="-4,5 -4,-948.813 2239,-948.813 2239,5 -4,5"/>
<g id="clust1" class="cluster"><title>cluster&#45;nid&#45;08</title>
<polygon fill="none" stroke="#cccccc" points="51,-639.813 51,-713.813 536,-713.813 536,-639.813 51,-639.813"/>
</g>
<g id="clust2" class="cluster"><title>cluster&#45;nid&#45;09</title>
<polygon fill="none" stroke="#cccccc" points="51,-734.813 51,-808.813 536,-808.813 536,-734.813 51,-734.813"/>
</g>
<g id="clust7" class="cluster"><title>cluster&#45;nid&#45;0e</title>
<polygon fill="none" stroke="#cccccc" points="21,-842.813 21,-916.813 171,-916.813 171,-842.813 21,-842.813"/>
</g>
<g id="clust9" class="cluster"><title>cluster&#45;nid&#45;10</title>
<polygon fill="none" stroke="#cccccc" points="1668,-207.813 1668,-281.813 2180,-281.813 2180,-207.813 1668,-207.813"/>
</g>
<g id="clust10" class="cluster"><title>cluster&#45;nid&#45;11</title>
<polygon fill="none" stroke="#cccccc" points="1668,-37.8126 1668,-111.813 2180,-111.813 2180,-37.8126 1668,-37.8126"/>
</g>
<g id="clust13" class="cluster"><title>cluster&#45;nid&#45;14</title>
<polygon fill="none" stroke="#cccccc" points="1170,-795.813 1170,-929.813 1754,-929.813 1754,-795.813 1170,-795.813"/>
</g>
<g id="clust14" class="cluster"><title>cluster&#45;nid&#45;15</title>
<polygon fill="none" stroke="#cccccc" points="1170,-593.813 1170,-727.813 1754,-727.813 1754,-593.813 1170,-593.813"/>
</g>
<g id="clust17" class="cluster"><title>cluster&#45;nid&#45;18</title>
<polygon fill="none" stroke="#cccccc" points="1170,-451.813 1170,-585.813 1754,-585.813 1754,-451.813 1170,-451.813"/>
</g>
<g id="clust21" class="cluster"><title>cluster&#45;nid&#45;1c</title>
<polygon fill="none" stroke="#cccccc" points="1170,-309.813 1170,-443.813 1754,-443.813 1754,-309.813 1170,-309.813"/>
</g>
<g id="clust23" class="cluster"><title>cluster&#45;nid&#45;1e</title>
<polygon fill="none" stroke="#cccccc" points="1204,-194.813 1204,-294.813 1328,-294.813 1328,-194.813 1204,-194.813"/>
</g>
<g id="clust24" class="cluster"><title>cluster&#45;nid&#45;1f</title>
<polygon fill="none" stroke="#cccccc" points="1204,-24.8126 1204,-124.813 1328,-124.813 1328,-24.8126 1204,-24.8126"/>
</g>
<g id="clust26" class="cluster"><title>cluster&#45;nid&#45;21</title>
<polygon fill="none" stroke="#cccccc" points="405,-302.813 405,-504.813 945,-504.813 945,-302.813 405,-302.813"/>
</g>
<g id="clust29" class="cluster"><title>cluster&#45;nid&#45;24&#45;in</title>
<polygon fill="none" stroke="#cccccc" points="2044,-803.813 2044,-895.813 2226,-895.813 2226,-803.813 2044,-803.813"/>
</g>
<g id="clust31" class="cluster"><title>cluster&#45;nid&#45;25&#45;in</title>
<polygon fill="none" stroke="#cccccc" points="2044,-596.813 2044,-688.813 2226,-688.813 2226,-596.813 2044,-596.813"/>
</g>
<g id="clust35" class="cluster"><title>cluster&#45;nid&#45;28&#45;in</title>
<polygon fill="none" stroke="#cccccc" points="2044,-471.813 2044,-563.813 2226,-563.813 2226,-471.813 2044,-471.813"/>
</g>
<g id="clust38" class="cluster"><title>cluster&#45;nid&#45;29&#45;out</title>
<polygon fill="none" stroke="#cccccc" points="16,-60.8126 16,-152.813 176,-152.813 176,-60.8126 16,-60.8126"/>
</g>
<g id="clust40" class="cluster"><title>cluster&#45;nid&#45;2a&#45;out</title>
<polygon fill="none" stroke="#cccccc" points="8,-160.813 8,-252.813 184,-252.813 184,-160.813 8,-160.813"/>
</g>
<g id="clust42" class="cluster"><title>cluster&#45;nid&#45;2b&#45;out</title>
<polygon fill="none" stroke="#cccccc" points="16,-260.813 16,-352.813 176,-352.813 176,-260.813 16,-260.813"/>
</g>
<g id="clust44" class="cluster"><title>cluster&#45;nid&#45;2d&#45;in</title>
<polygon fill="none" stroke="#cccccc" points="384,-833.813 384,-925.813 618,-925.813 618,-833.813 384,-833.813"/>
</g>
<g id="clust49" class="cluster"><title>cluster&#45;nid&#45;30&#45;out</title>
<polygon fill="none" stroke="#cccccc" points="818,-94.8126 818,-186.813 970,-186.813 970,-94.8126 818,-94.8126"/>
</g>
<g id="clust52" class="cluster"><title>cluster&#45;nid&#45;33&#45;in</title>
<polygon fill="none" stroke="#cccccc" points="2048,-703.813 2048,-795.813 2222,-795.813 2222,-703.813 2048,-703.813"/>
</g>
<g id="clust54" class="cluster"><title>cluster&#45;nid&#45;34</title>
<polygon fill="none" stroke="#cccccc" points="832,-836.813 832,-936.813 956,-936.813 956,-836.813 832,-836.813"/>
</g>
<g id="clust55" class="cluster"><title>cluster&#45;nid&#45;35</title>
<polygon fill="none" stroke="#cccccc" points="832,-728.813 832,-828.813 956,-828.813 956,-728.813 832,-728.813"/>
</g>
<g id="clust58" class="cluster"><title>cluster&#45;nid&#45;38</title>
<polygon fill="none" stroke="#cccccc" points="832,-620.813 832,-720.813 956,-720.813 956,-620.813 832,-620.813"/>
</g>
<g id="clust62" class="cluster"><title>cluster&#45;nid&#45;3c</title>
<polygon fill="none" stroke="#cccccc" points="832,-512.813 832,-612.813 956,-612.813 956,-512.813 832,-512.813"/>
</g>
<g id="clust63" class="cluster"><title>cluster&#45;nid&#45;3e</title>
<polygon fill="none" stroke="#cccccc" points="1562,-735.813 1562,-787.813 1844,-787.813 1844,-735.813 1562,-735.813"/>
</g>
<!-- nid&#45;08 -->
<g id="node1" class="node"><title>nid&#45;08</title>
<ellipse fill="none" stroke="blue" cx="96" cy="-676.813" rx="36.7079" ry="29.3315"/>
<text text-anchor="middle" x="96" y="-679.613" font-family="Times,serif" font-size="14.00">8</text>
<text text-anchor="middle" x="96" y="-662.813" font-family="Times,serif" font-size="14.00">Stereo</text>
</g>
<!-- nid&#45;08&#45;ampout -->
<g id="node2" class="node"><title>nid&#45;08&#45;ampout</title>
<polygon fill="none" stroke="#0000ff" points="528,-676.813 487.5,-694.813 487.5,-658.813 528,-676.813"/>
</g>
<!-- nid&#45;08&#45;&gt;nid&#45;08&#45;ampout -->
<g id="edge1" class="edge"><title>nid&#45;08&#45;&gt;nid&#45;08&#45;ampout</title>
<path fill="none" stroke="#0000ff" d="M132.764,-676.813C215.975,-676.813 420.175,-676.813 481.984,-676.813"/>
<polygon fill="#0000ff" stroke="#0000ff" points="482.184,-678.563 487.184,-676.813 482.184,-675.063 482.184,-678.563"/>
</g>
<!-- nid&#45;34 -->
<g id="node15" class="node"><title>nid&#45;34</title>
<polygon fill="none" stroke="black" points="947.837,-928.513 862.194,-928.513 840.163,-845.112 925.806,-845.112 947.837,-928.513"/>
<text text-anchor="middle" x="894" y="-889.613" font-family="Times,serif" font-size="14.00">52</text>
<text text-anchor="middle" x="894" y="-872.813" font-family="Times,serif" font-size="14.00">Stereo</text>
</g>
<!-- nid&#45;08&#45;ampout&#45;&gt;nid&#45;34 -->
<g id="edge45" class="edge"><title>nid&#45;08&#45;ampout&#45;&gt;nid&#45;34</title>
<path fill="none" stroke="#333333" d="M515.389,-682.625C537.158,-692.17 581.469,-711.987 618,-730.813 693.799,-769.875 778.873,-818.976 834.051,-851.547"/>
<polygon fill="#333333" stroke="#333333" points="832.593,-854.751 842.982,-856.829 836.156,-848.726 832.593,-854.751"/>
</g>
<!-- nid&#45;35 -->
<g id="node20" class="node"><title>nid&#45;35</title>
<polygon fill="none" stroke="black" points="947.837,-820.513 862.194,-820.513 840.163,-737.112 925.806,-737.112 947.837,-820.513"/>
<text text-anchor="middle" x="894" y="-781.613" font-family="Times,serif" font-size="14.00">53</text>
<text text-anchor="middle" x="894" y="-764.813" font-family="Times,serif" font-size="14.00">Stereo</text>
</g>
<!-- nid&#45;08&#45;ampout&#45;&gt;nid&#45;35 -->
<g id="edge47" class="edge"><title>nid&#45;08&#45;ampout&#45;&gt;nid&#45;35</title>
<path fill="none" stroke="gray" stroke-dasharray="5,2" d="M518.801,-681.195C573.466,-695.456 747.919,-740.965 838.001,-764.465"/>
<polygon fill="gray" stroke="gray" points="837.206,-767.875 847.765,-767.012 838.973,-761.101 837.206,-767.875"/>
</g>
<!-- nid&#45;38 -->
<g id="node24" class="node"><title>nid&#45;38</title>
<polygon fill="none" stroke="black" points="947.837,-712.513 862.194,-712.513 840.163,-629.112 925.806,-629.112 947.837,-712.513"/>
<text text-anchor="middle" x="894" y="-673.613" font-family="Times,serif" font-size="14.00">56</text>
<text text-anchor="middle" x="894" y="-656.813" font-family="Times,serif" font-size="14.00">Stereo</text>
</g>
<!-- nid&#45;08&#45;ampout&#45;&gt;nid&#45;38 -->
<g id="edge49" class="edge"><title>nid&#45;08&#45;ampout&#45;&gt;nid&#45;38</title>
<path fill="none" stroke="#333333" d="M527.353,-676.424C590.546,-675.454 756.064,-672.914 841.031,-671.61"/>
<polygon fill="#333333" stroke="#333333" points="841.284,-675.107 851.229,-671.454 841.177,-668.108 841.284,-675.107"/>
</g>
<!-- nid&#45;3c -->
<g id="node28" class="node"><title>nid&#45;3c</title>
<polygon fill="none" stroke="black" points="947.837,-604.513 862.194,-604.513 840.163,-521.112 925.806,-521.112 947.837,-604.513"/>
<text text-anchor="middle" x="894" y="-565.613" font-family="Times,serif" font-size="14.00">60</text>
<text text-anchor="middle" x="894" y="-548.813" font-family="Times,serif" font-size="14.00">Stereo</text>
</g>
<!-- nid&#45;08&#45;ampout&#45;&gt;nid&#45;3c -->
<g id="edge51" class="edge"><title>nid&#45;08&#45;ampout&#45;&gt;nid&#45;3c</title>
<path fill="none" stroke="#333333" d="M517.812,-672.203C572.564,-656.239 755.551,-602.887 844.131,-577.061"/>
<polygon fill="#333333" stroke="#333333" points="845.319,-580.36 853.939,-574.201 843.359,-573.64 845.319,-580.36"/>
</g>
<!-- nid&#45;09 -->
<g id="node3" class="node"><title>nid&#45;09</title>
<ellipse fill="none" stroke="blue" cx="96" cy="-771.813" rx="36.7079" ry="29.3315"/>
<text text-anchor="middle" x="96" y="-774.613" font-family="Times,serif" font-size="14.00">9</text>
<text text-anchor="middle" x="96" y="-757.813" font-family="Times,serif" font-size="14.00">Stereo</text>
</g>
<!-- nid&#45;09&#45;ampout -->
<g id="node4" class="node"><title>nid&#45;09&#45;ampout</title>
<polygon fill="none" stroke="#0000ff" points="528,-771.813 487.5,-789.813 487.5,-753.813 528,-771.813"/>
</g>
<!-- nid&#45;09&#45;&gt;nid&#45;09&#45;ampout -->
<g id="edge2" class="edge"><title>nid&#45;09&#45;&gt;nid&#45;09&#45;ampout</title>
<path fill="none" stroke="#0000ff" d="M132.764,-771.813C215.975,-771.813 420.175,-771.813 481.984,-771.813"/>
<polygon fill="#0000ff" stroke="#0000ff" points="482.184,-773.563 487.184,-771.813 482.184,-770.063 482.184,-773.563"/>
</g>
<!-- nid&#45;09&#45;ampout&#45;&gt;nid&#45;34 -->
<g id="edge46" class="edge"><title>nid&#45;09&#45;ampout&#45;&gt;nid&#45;34</title>
<path fill="none" stroke="gray" stroke-dasharray="5,2" d="M517.812,-776.463C571.243,-792.178 746.792,-843.81 837.555,-870.505"/>
<polygon fill="gray" stroke="gray" points="836.813,-873.935 847.394,-873.399 838.788,-867.22 836.813,-873.935"/>
</g>
<!-- nid&#45;09&#45;ampout&#45;&gt;nid&#45;35 -->
<g id="edge48" class="edge"><title>nid&#45;09&#45;ampout&#45;&gt;nid&#45;35</title>
<path fill="none" stroke="#333333" d="M527.054,-772.261C589.914,-773.387 755.361,-776.349 840.593,-777.874"/>
<polygon fill="#333333" stroke="#333333" points="840.765,-781.378 850.826,-778.058 840.89,-774.379 840.765,-781.378"/>
</g>
<!-- nid&#45;09&#45;ampout&#45;&gt;nid&#45;38 -->
<g id="edge50" class="edge"><title>nid&#45;09&#45;ampout&#45;&gt;nid&#45;38</title>
<path fill="none" stroke="gray" stroke-dasharray="5,2" d="M518.801,-767.473C574.677,-753.039 755.709,-706.276 843.863,-683.505"/>
<polygon fill="gray" stroke="gray" points="844.822,-686.873 853.629,-680.983 843.071,-680.095 844.822,-686.873"/>
</g>
<!-- nid&#45;09&#45;ampout&#45;&gt;nid&#45;3c -->
<g id="edge52" class="edge"><title>nid&#45;09&#45;ampout&#45;&gt;nid&#45;3c</title>
<path fill="none" stroke="gray" stroke-dasharray="5,2" d="M515.383,-765.988C537.144,-756.428 581.444,-736.588 618,-717.813 700.431,-675.476 793.941,-621.446 847.934,-589.64"/>
<polygon fill="gray" stroke="gray" points="849.742,-592.637 856.576,-584.54 846.185,-586.608 849.742,-592.637"/>
</g>
<!-- nid&#45;0e -->
<g id="node5" class="node"><title>nid&#45;0e</title>
<ellipse fill="none" stroke="blue" cx="96" cy="-879.813" rx="66.6461" ry="29.3315"/>
<text text-anchor="middle" x="96" y="-882.613" font-family="Times,serif" font-size="14.00">14</text>
<text text-anchor="middle" x="96" y="-865.813" font-family="Times,serif" font-size="14.00">Stereo Digital</text>
</g>
<!-- nid&#45;2d&#45;in -->
<g id="node40" class="node"><title>nid&#45;2d&#45;in</title>
<polygon fill="none" stroke="green" points="609.142,-917.513 392.858,-917.513 392.858,-842.112 609.142,-842.112 609.142,-917.513"/>
<text text-anchor="middle" x="501" y="-899.413" font-family="Times,serif" font-size="14.00">45</text>
<text text-anchor="middle" x="501" y="-882.613" font-family="Times,serif" font-size="14.00">[N/A] SPDIF Out at Ext Rear Panel</text>
<text text-anchor="middle" x="501" y="-865.813" font-family="Times,serif" font-size="14.00">Stereo Digital</text>
<text text-anchor="middle" x="501" y="-849.013" font-family="Times,serif" font-size="14.00">OUT</text>
</g>
<!-- nid&#45;0e&#45;&gt;nid&#45;2d&#45;in -->
<g id="edge43" class="edge"><title>nid&#45;0e&#45;&gt;nid&#45;2d&#45;in</title>
<path fill="none" stroke="#333333" d="M162.646,-879.813C221.956,-879.813 310.66,-879.813 382.226,-879.813"/>
<polygon fill="#333333" stroke="#333333" points="382.655,-883.313 392.655,-879.813 382.655,-876.313 382.655,-883.313"/>
</g>
<!-- nid&#45;10 -->
<g id="node6" class="node"><title>nid&#45;10</title>
<ellipse fill="none" stroke="red" cx="2135" cy="-244.813" rx="36.7079" ry="29.3315"/>
<text text-anchor="middle" x="2135" y="-247.613" font-family="Times,serif" font-size="14.00">16</text>
<text text-anchor="middle" x="2135" y="-230.813" font-family="Times,serif" font-size="14.00">Stereo</text>
</g>
<!-- nid&#45;10&#45;ampin -->
<g id="node7" class="node"><title>nid&#45;10&#45;ampin</title>
<polygon fill="none" stroke="#6767e2" points="1730,-244.813 1689.5,-262.813 1689.5,-226.813 1730,-244.813"/>
</g>
<!-- nid&#45;10&#45;ampin&#45;&gt;nid&#45;10 -->
<g id="edge3" class="edge"><title>nid&#45;10&#45;ampin&#45;&gt;nid&#45;10</title>
<path fill="none" stroke="#6767e2" d="M1730.25,-244.813C1802.66,-244.813 2005.61,-244.813 2093.06,-244.813"/>
<polygon fill="#6767e2" stroke="#6767e2" points="2093.15,-246.563 2098.15,-244.813 2093.15,-243.063 2093.15,-246.563"/>
</g>
<!-- nid&#45;1e -->
<g id="node8" class="node"><title>nid&#45;1e</title>
<polygon fill="none" stroke="black" points="1319.84,-286.513 1234.19,-286.513 1212.16,-203.112 1297.81,-203.112 1319.84,-286.513"/>
<text text-anchor="middle" x="1266" y="-247.613" font-family="Times,serif" font-size="14.00">30</text>
<text text-anchor="middle" x="1266" y="-230.813" font-family="Times,serif" font-size="14.00">Stereo</text>
</g>
<!-- nid&#45;1e&#45;&gt;nid&#45;10&#45;ampin -->
<g id="edge4" class="edge"><title>nid&#45;1e&#45;&gt;nid&#45;10&#45;ampin</title>
<path fill="none" stroke="#333333" d="M1309.1,-244.813C1399.39,-244.813 1609.06,-244.813 1678.9,-244.813"/>
<polygon fill="#333333" stroke="#333333" points="1679.22,-248.313 1689.22,-244.813 1679.22,-241.313 1679.22,-248.313"/>
</g>
<!-- nid&#45;11 -->
<g id="node9" class="node"><title>nid&#45;11</title>
<ellipse fill="none" stroke="red" cx="2135" cy="-74.8126" rx="36.7079" ry="29.3315"/>
<text text-anchor="middle" x="2135" y="-77.6126" font-family="Times,serif" font-size="14.00">17</text>
<text text-anchor="middle" x="2135" y="-60.8126" font-family="Times,serif" font-size="14.00">Stereo</text>
</g>
<!-- nid&#45;11&#45;ampin -->
<g id="node10" class="node"><title>nid&#45;11&#45;ampin</title>
<polygon fill="none" stroke="#0000ff" points="1730,-74.8126 1689.5,-92.8126 1689.5,-56.8126 1730,-74.8126"/>
</g>
<!-- nid&#45;11&#45;ampin&#45;&gt;nid&#45;11 -->
<g id="edge5" class="edge"><title>nid&#45;11&#45;ampin&#45;&gt;nid&#45;11</title>
<path fill="none" stroke="#0000ff" d="M1730.25,-74.8126C1802.66,-74.8126 2005.61,-74.8126 2093.06,-74.8126"/>
<polygon fill="#0000ff" stroke="#0000ff" points="2093.15,-76.5627 2098.15,-74.8126 2093.15,-73.0627 2093.15,-76.5627"/>
</g>
<!-- nid&#45;1f -->
<g id="node11" class="node"><title>nid&#45;1f</title>
<polygon fill="none" stroke="black" points="1319.84,-116.513 1234.19,-116.513 1212.16,-33.1124 1297.81,-33.1124 1319.84,-116.513"/>
<text text-anchor="middle" x="1266" y="-77.6126" font-family="Times,serif" font-size="14.00">31</text>
<text text-anchor="middle" x="1266" y="-60.8126" font-family="Times,serif" font-size="14.00">Stereo</text>
</g>
<!-- nid&#45;1f&#45;&gt;nid&#45;11&#45;ampin -->
<g id="edge6" class="edge"><title>nid&#45;1f&#45;&gt;nid&#45;11&#45;ampin</title>
<path fill="none" stroke="#333333" d="M1309.1,-74.8126C1399.39,-74.8126 1609.06,-74.8126 1678.9,-74.8126"/>
<polygon fill="#333333" stroke="#333333" points="1679.22,-78.3127 1689.22,-74.8126 1679.22,-71.3127 1679.22,-78.3127"/>
</g>
<!-- nid&#45;14 -->
<g id="node12" class="node"><title>nid&#45;14</title>
<polygon fill="none" stroke="black" points="1745.03,-849.813 1724.02,-883.745 1681.98,-883.745 1660.97,-849.813 1681.98,-815.88 1724.02,-815.88 1745.03,-849.813"/>
<text text-anchor="middle" x="1703" y="-852.613" font-family="Times,serif" font-size="14.00">20</text>
<text text-anchor="middle" x="1703" y="-835.813" font-family="Times,serif" font-size="14.00">Stereo</text>
</g>
<!-- nid&#45;24&#45;in -->
<g id="node36" class="node"><title>nid&#45;24&#45;in</title>
<polygon fill="none" stroke="green" points="2218.07,-887.513 2051.93,-887.513 2051.93,-812.112 2218.07,-812.112 2218.07,-887.513"/>
<text text-anchor="middle" x="2135" y="-869.413" font-family="Times,serif" font-size="14.00">36</text>
<text text-anchor="middle" x="2135" y="-852.613" font-family="Times,serif" font-size="14.00">[Fixed] Speaker at Int N/A</text>
<text text-anchor="middle" x="2135" y="-835.813" font-family="Times,serif" font-size="14.00">Stereo</text>
<text text-anchor="middle" x="2135" y="-819.013" font-family="Times,serif" font-size="14.00">OUT EAPD Balanced</text>
</g>
<!-- nid&#45;14&#45;&gt;nid&#45;24&#45;in -->
<g id="edge39" class="edge"><title>nid&#45;14&#45;&gt;nid&#45;24&#45;in</title>
<path fill="none" stroke="#333333" d="M1745.23,-849.813C1813,-849.813 1949.58,-849.813 2041.44,-849.813"/>
<polygon fill="#333333" stroke="#333333" points="2041.57,-853.313 2051.57,-849.813 2041.57,-846.313 2041.57,-853.313"/>
</g>
<!-- nid&#45;14&#45;ampin&#45;52 -->
<g id="node13" class="node"><title>nid&#45;14&#45;ampin&#45;52</title>
<polygon fill="none" stroke="#0000ff" points="1354.1,-896.813 1221.95,-921.414 1221.95,-872.211 1354.1,-896.813"/>
<text text-anchor="middle" x="1266" y="-891.213" font-family="Times,serif" font-size="14.00">0 (52)</text>
</g>
<!-- nid&#45;14&#45;ampin&#45;52&#45;&gt;nid&#45;14 -->
<g id="edge7" class="edge"><title>nid&#45;14&#45;ampin&#45;52&#45;&gt;nid&#45;14</title>
<path fill="none" stroke="#0000ff" d="M1322.09,-890.86C1409.56,-881.409 1578.45,-863.162 1658.23,-854.542"/>
<polygon fill="#0000ff" stroke="#0000ff" points="1658.57,-856.265 1663.35,-853.988 1658.19,-852.786 1658.57,-856.265"/>
</g>
<!-- nid&#45;14&#45;ampin&#45;33 -->
<g id="node14" class="node"><title>nid&#45;14&#45;ampin&#45;33</title>
<polygon fill="none" stroke="#c8c8c8" points="1354.1,-828.813 1221.95,-853.414 1221.95,-804.211 1354.1,-828.813"/>
<text text-anchor="middle" x="1266" y="-823.213" font-family="Times,serif" font-size="14.00">1 (33)</text>
</g>
<!-- nid&#45;14&#45;ampin&#45;33&#45;&gt;nid&#45;14 -->
<g id="edge8" class="edge"><title>nid&#45;14&#45;ampin&#45;33&#45;&gt;nid&#45;14</title>
<path fill="none" stroke="#c8c8c8" d="M1336.41,-832.163C1426.36,-836.506 1580.66,-843.955 1656.8,-847.631"/>
<polygon fill="#c8c8c8" stroke="#c8c8c8" points="1657.07,-849.395 1662.15,-847.889 1657.24,-845.9 1657.07,-849.395"/>
</g>
<!-- nid&#45;34&#45;&gt;nid&#45;14&#45;ampin&#45;52 -->
<g id="edge9" class="edge"><title>nid&#45;34&#45;&gt;nid&#45;14&#45;ampin&#45;52</title>
<path fill="none" stroke="#333333" d="M937.444,-887.96C1005.25,-889.792 1137.87,-893.377 1211.87,-895.377"/>
<polygon fill="#333333" stroke="#333333" points="1211.82,-898.877 1221.91,-895.648 1212.01,-891.879 1211.82,-898.877"/>
</g>
<!-- nid&#45;21 -->
<g id="node16" class="node"><title>nid&#45;21</title>
<polygon fill="none" stroke="black" points="936.034,-403.813 915.017,-437.745 872.983,-437.745 851.966,-403.813 872.983,-369.88 915.017,-369.88 936.034,-403.813"/>
<text text-anchor="middle" x="894" y="-406.613" font-family="Times,serif" font-size="14.00">33</text>
<text text-anchor="middle" x="894" y="-389.813" font-family="Times,serif" font-size="14.00">Stereo</text>
</g>
<!-- nid&#45;21&#45;&gt;nid&#45;14&#45;ampin&#45;33 -->
<g id="edge10" class="edge"><title>nid&#45;21&#45;&gt;nid&#45;14&#45;ampin&#45;33</title>
<path fill="none" stroke="#333333" d="M918.181,-432.966C964.62,-491.024 1072.93,-624.724 1170,-731.813 1191.8,-755.865 1217.64,-782.111 1236.86,-801.229"/>
<polygon fill="#333333" stroke="#333333" points="1234.58,-803.891 1244.14,-808.445 1239.5,-798.919 1234.58,-803.891"/>
</g>
<!-- nid&#45;15&#45;ampin&#45;33 -->
<g id="node19" class="node"><title>nid&#45;15&#45;ampin&#45;33</title>
<polygon fill="none" stroke="#c8c8c8" points="1354.1,-626.813 1221.95,-651.414 1221.95,-602.211 1354.1,-626.813"/>
<text text-anchor="middle" x="1266" y="-621.213" font-family="Times,serif" font-size="14.00">1 (33)</text>
</g>
<!-- nid&#45;21&#45;&gt;nid&#45;15&#45;ampin&#45;33 -->
<g id="edge14" class="edge"><title>nid&#45;21&#45;&gt;nid&#45;15&#45;ampin&#45;33</title>
<path fill="none" stroke="#333333" d="M922.589,-425.558C970.711,-462.764 1074.04,-539.482 1170,-589.813 1183.25,-596.76 1198.1,-603.152 1212.05,-608.598"/>
<polygon fill="#333333" stroke="#333333" points="1210.95,-611.923 1221.54,-612.213 1213.44,-605.382 1210.95,-611.923"/>
</g>
<!-- nid&#45;18&#45;ampin&#45;33 -->
<g id="node23" class="node"><title>nid&#45;18&#45;ampin&#45;33</title>
<polygon fill="none" stroke="#c8c8c8" points="1354.1,-484.813 1221.95,-509.414 1221.95,-460.211 1354.1,-484.813"/>
<text text-anchor="middle" x="1266" y="-479.213" font-family="Times,serif" font-size="14.00">1 (33)</text>
</g>
<!-- nid&#45;21&#45;&gt;nid&#45;18&#45;ampin&#45;33 -->
<g id="edge18" class="edge"><title>nid&#45;21&#45;&gt;nid&#45;18&#45;ampin&#45;33</title>
<path fill="none" stroke="#333333" d="M931.151,-411.727C996.759,-426.09 1135.69,-456.503 1212.02,-473.214"/>
<polygon fill="#333333" stroke="#333333" points="1211.39,-476.659 1221.91,-475.379 1212.89,-469.821 1211.39,-476.659"/>
</g>
<!-- nid&#45;1c&#45;ampin&#45;33 -->
<g id="node27" class="node"><title>nid&#45;1c&#45;ampin&#45;33</title>
<polygon fill="none" stroke="#c8c8c8" points="1354.1,-342.813 1221.95,-367.414 1221.95,-318.211 1354.1,-342.813"/>
<text text-anchor="middle" x="1266" y="-337.213" font-family="Times,serif" font-size="14.00">1 (33)</text>
</g>
<!-- nid&#45;21&#45;&gt;nid&#45;1c&#45;ampin&#45;33 -->
<g id="edge22" class="edge"><title>nid&#45;21&#45;&gt;nid&#45;1c&#45;ampin&#45;33</title>
<path fill="none" stroke="#333333" d="M932.514,-397.628C998.489,-386.751 1135.48,-364.166 1211.41,-351.647"/>
<polygon fill="#333333" stroke="#333333" points="1212.41,-355.03 1221.71,-349.95 1211.27,-348.123 1212.41,-355.03"/>
</g>
<!-- nid&#45;21&#45;&gt;nid&#45;1e -->
<g id="edge26" class="edge"><title>nid&#45;21&#45;&gt;nid&#45;1e</title>
<path fill="none" stroke="gray" stroke-dasharray="5,2" d="M927.511,-389.842C993.125,-361.645 1141.61,-297.836 1217.87,-265.067"/>
<polygon fill="gray" stroke="gray" points="1219.44,-268.202 1227.24,-261.038 1216.67,-261.771 1219.44,-268.202"/>
</g>
<!-- nid&#45;21&#45;&gt;nid&#45;1f -->
<g id="edge31" class="edge"><title>nid&#45;21&#45;&gt;nid&#45;1f</title>
<path fill="none" stroke="gray" stroke-dasharray="5,2" d="M921.609,-380.152C985.288,-323.53 1146.83,-179.884 1223.46,-111.753"/>
<polygon fill="gray" stroke="gray" points="1225.9,-114.268 1231.04,-105.007 1221.24,-109.037 1225.9,-114.268"/>
</g>
<!-- nid&#45;15 -->
<g id="node17" class="node"><title>nid&#45;15</title>
<polygon fill="none" stroke="black" points="1745.03,-642.813 1724.02,-676.745 1681.98,-676.745 1660.97,-642.813 1681.98,-608.88 1724.02,-608.88 1745.03,-642.813"/>
<text text-anchor="middle" x="1703" y="-645.613" font-family="Times,serif" font-size="14.00">21</text>
<text text-anchor="middle" x="1703" y="-628.813" font-family="Times,serif" font-size="14.00">Stereo</text>
</g>
<!-- nid&#45;25&#45;in -->
<g id="node38" class="node"><title>nid&#45;25&#45;in</title>
<polygon fill="none" stroke="green" points="2217.97,-680.513 2052.03,-680.513 2052.03,-605.112 2217.97,-605.112 2217.97,-680.513"/>
<text text-anchor="middle" x="2135" y="-662.413" font-family="Times,serif" font-size="14.00">37</text>
<text text-anchor="middle" x="2135" y="-645.613" font-family="Times,serif" font-size="14.00">[Jack] HP Out at Ext Front</text>
<text text-anchor="middle" x="2135" y="-628.813" font-family="Times,serif" font-size="14.00">Stereo</text>
<text text-anchor="middle" x="2135" y="-612.013" font-family="Times,serif" font-size="14.00">OUT HP EAPD Detect</text>
</g>
<!-- nid&#45;15&#45;&gt;nid&#45;25&#45;in -->
<g id="edge41" class="edge"><title>nid&#45;15&#45;&gt;nid&#45;25&#45;in</title>
<path fill="none" stroke="#333333" d="M1745.23,-642.813C1813.1,-642.813 1949.99,-642.813 2041.85,-642.813"/>
<polygon fill="#333333" stroke="#333333" points="2041.99,-646.313 2051.99,-642.813 2041.99,-639.313 2041.99,-646.313"/>
</g>
<!-- nid&#45;15&#45;ampin&#45;53 -->
<g id="node18" class="node"><title>nid&#45;15&#45;ampin&#45;53</title>
<polygon fill="none" stroke="#0000ff" points="1354.1,-694.813 1221.95,-719.414 1221.95,-670.211 1354.1,-694.813"/>
<text text-anchor="middle" x="1266" y="-689.213" font-family="Times,serif" font-size="14.00">0 (53)</text>
</g>
<!-- nid&#45;15&#45;ampin&#45;53&#45;&gt;nid&#45;15 -->
<g id="edge11" class="edge"><title>nid&#45;15&#45;ampin&#45;53&#45;&gt;nid&#45;15</title>
<path fill="none" stroke="#0000ff" d="M1319.9,-688.488C1406.87,-678.093 1578.37,-657.592 1658.64,-647.996"/>
<polygon fill="#0000ff" stroke="#0000ff" points="1659.04,-649.711 1663.8,-647.38 1658.62,-646.235 1659.04,-649.711"/>
</g>
<!-- nid&#45;15&#45;ampin&#45;33&#45;&gt;nid&#45;15 -->
<g id="edge12" class="edge"><title>nid&#45;15&#45;ampin&#45;33&#45;&gt;nid&#45;15</title>
<path fill="none" stroke="#c8c8c8" d="M1339.81,-629.491C1430.04,-632.809 1581.06,-638.364 1656.39,-641.135"/>
<polygon fill="#c8c8c8" stroke="#c8c8c8" points="1656.62,-642.894 1661.68,-641.329 1656.74,-639.397 1656.62,-642.894"/>
</g>
<!-- nid&#45;35&#45;&gt;nid&#45;15&#45;ampin&#45;53 -->
<g id="edge13" class="edge"><title>nid&#45;35&#45;&gt;nid&#45;15&#45;ampin&#45;53</title>
<path fill="none" stroke="#333333" d="M934.596,-769.823C1001.37,-754.665 1136.4,-724.009 1211.52,-706.954"/>
<polygon fill="#333333" stroke="#333333" points="1212.73,-710.268 1221.71,-704.641 1211.18,-703.442 1212.73,-710.268"/>
</g>
<!-- nid&#45;18 -->
<g id="node21" class="node"><title>nid&#45;18</title>
<polygon fill="none" stroke="black" points="1745.03,-517.813 1724.02,-551.745 1681.98,-551.745 1660.97,-517.813 1681.98,-483.88 1724.02,-483.88 1745.03,-517.813"/>
<text text-anchor="middle" x="1703" y="-520.613" font-family="Times,serif" font-size="14.00">24</text>
<text text-anchor="middle" x="1703" y="-503.813" font-family="Times,serif" font-size="14.00">Stereo</text>
</g>
<!-- nid&#45;28&#45;in -->
<g id="node39" class="node"><title>nid&#45;28&#45;in</title>
<polygon fill="none" stroke="green" points="2217.7,-555.513 2052.3,-555.513 2052.3,-480.112 2217.7,-480.112 2217.7,-555.513"/>
<text text-anchor="middle" x="2135" y="-537.413" font-family="Times,serif" font-size="14.00">40</text>
<text text-anchor="middle" x="2135" y="-520.613" font-family="Times,serif" font-size="14.00">[N/A] HP Out at Ext Front</text>
<text text-anchor="middle" x="2135" y="-503.813" font-family="Times,serif" font-size="14.00">Stereo</text>
<text text-anchor="middle" x="2135" y="-487.013" font-family="Times,serif" font-size="14.00">OUT HP Detect</text>
</g>
<!-- nid&#45;18&#45;&gt;nid&#45;28&#45;in -->
<g id="edge42" class="edge"><title>nid&#45;18&#45;&gt;nid&#45;28&#45;in</title>
<path fill="none" stroke="#333333" d="M1745.23,-517.813C1813.21,-517.813 1950.4,-517.813 2042.26,-517.813"/>
<polygon fill="#333333" stroke="#333333" points="2042.4,-521.313 2052.4,-517.813 2042.4,-514.313 2042.4,-521.313"/>
</g>
<!-- nid&#45;18&#45;ampin&#45;56 -->
<g id="node22" class="node"><title>nid&#45;18&#45;ampin&#45;56</title>
<polygon fill="none" stroke="#c8c8c8" points="1354.1,-552.813 1221.95,-577.414 1221.95,-528.211 1354.1,-552.813"/>
<text text-anchor="middle" x="1266" y="-547.213" font-family="Times,serif" font-size="14.00">0 (56)</text>
</g>
<!-- nid&#45;18&#45;ampin&#45;56&#45;&gt;nid&#45;18 -->
<g id="edge15" class="edge"><title>nid&#45;18&#45;ampin&#45;56&#45;&gt;nid&#45;18</title>
<path fill="none" stroke="#c8c8c8" d="M1327.94,-547.909C1416.72,-540.766 1579.52,-527.668 1657.74,-521.374"/>
<polygon fill="#c8c8c8" stroke="#c8c8c8" points="1657.93,-523.114 1662.77,-520.969 1657.65,-519.626 1657.93,-523.114"/>
</g>
<!-- nid&#45;18&#45;ampin&#45;33&#45;&gt;nid&#45;18 -->
<g id="edge16" class="edge"><title>nid&#45;18&#45;ampin&#45;33&#45;&gt;nid&#45;18</title>
<path fill="none" stroke="#c8c8c8" d="M1328.86,-489.506C1417.8,-496.253 1579.66,-508.531 1657.65,-514.448"/>
<polygon fill="#c8c8c8" stroke="#c8c8c8" points="1657.55,-516.195 1662.66,-514.829 1657.81,-512.705 1657.55,-516.195"/>
</g>
<!-- nid&#45;38&#45;&gt;nid&#45;18&#45;ampin&#45;56 -->
<g id="edge17" class="edge"><title>nid&#45;38&#45;&gt;nid&#45;18&#45;ampin&#45;56</title>
<path fill="none" stroke="#333333" d="M933.897,-658.408C1000.57,-637.143 1136.77,-593.709 1212.04,-569.701"/>
<polygon fill="#333333" stroke="#333333" points="1213.34,-572.962 1221.8,-566.589 1211.21,-566.293 1213.34,-572.962"/>
</g>
<!-- nid&#45;1c -->
<g id="node25" class="node"><title>nid&#45;1c</title>
<polygon fill="none" stroke="black" points="1745.03,-376.813 1724.02,-410.745 1681.98,-410.745 1660.97,-376.813 1681.98,-342.88 1724.02,-342.88 1745.03,-376.813"/>
<text text-anchor="middle" x="1703" y="-379.613" font-family="Times,serif" font-size="14.00">28</text>
<text text-anchor="middle" x="1703" y="-362.813" font-family="Times,serif" font-size="14.00">Stereo</text>
</g>
<!-- nid&#45;1c&#45;ampin&#45;60 -->
<g id="node26" class="node"><title>nid&#45;1c&#45;ampin&#45;60</title>
<polygon fill="none" stroke="#c8c8c8" points="1352.93,-410.813 1222.53,-435.414 1222.53,-386.211 1352.93,-410.813"/>
<text text-anchor="middle" x="1266" y="-405.213" font-family="Times,serif" font-size="14.00">0 (60)</text>
</g>
<!-- nid&#45;1c&#45;ampin&#45;60&#45;&gt;nid&#45;1c -->
<g id="edge19" class="edge"><title>nid&#45;1c&#45;ampin&#45;60&#45;&gt;nid&#45;1c</title>
<path fill="none" stroke="#c8c8c8" d="M1327.48,-406.085C1416.12,-399.158 1579.24,-386.408 1657.64,-380.28"/>
<polygon fill="#c8c8c8" stroke="#c8c8c8" points="1657.83,-382.021 1662.68,-379.886 1657.56,-378.531 1657.83,-382.021"/>
</g>
<!-- nid&#45;1c&#45;ampin&#45;33&#45;&gt;nid&#45;1c -->
<g id="edge20" class="edge"><title>nid&#45;1c&#45;ampin&#45;33&#45;&gt;nid&#45;1c</title>
<path fill="none" stroke="#c8c8c8" d="M1328.4,-347.612C1417.32,-354.562 1579.8,-367.261 1657.85,-373.362"/>
<polygon fill="#c8c8c8" stroke="#c8c8c8" points="1657.74,-375.109 1662.86,-373.754 1658.02,-371.619 1657.74,-375.109"/>
</g>
<!-- nid&#45;3c&#45;&gt;nid&#45;1c&#45;ampin&#45;60 -->
<g id="edge21" class="edge"><title>nid&#45;3c&#45;&gt;nid&#45;1c&#45;ampin&#45;60</title>
<path fill="none" stroke="#333333" d="M932.689,-546.705C985.558,-524.189 1084.83,-482.203 1170,-447.813 1183.87,-442.213 1198.93,-436.279 1212.89,-430.841"/>
<polygon fill="#333333" stroke="#333333" points="1214.3,-434.05 1222.35,-427.166 1211.76,-427.525 1214.3,-434.05"/>
</g>
<!-- nid&#45;2b&#45;out -->
<g id="node29" class="node"><title>nid&#45;2b&#45;out</title>
<polygon fill="none" stroke="green" points="167.225,-344.513 24.7751,-344.513 24.7751,-269.112 167.225,-269.112 167.225,-344.513"/>
<text text-anchor="middle" x="96" y="-326.413" font-family="Times,serif" font-size="14.00">43</text>
<text text-anchor="middle" x="96" y="-309.613" font-family="Times,serif" font-size="14.00">[Jack] Mic at Ext Rear</text>
<text text-anchor="middle" x="96" y="-292.813" font-family="Times,serif" font-size="14.00">Stereo</text>
<text text-anchor="middle" x="96" y="-276.013" font-family="Times,serif" font-size="14.00">IN Detect</text>
</g>
<!-- nid&#45;2b&#45;out&#45;&gt;nid&#45;1e -->
<g id="edge23" class="edge"><title>nid&#45;2b&#45;out&#45;&gt;nid&#45;1e</title>
<path fill="none" stroke="gray" stroke-dasharray="5,2" d="M167.433,-303.074C382.355,-291.665 1026.48,-257.474 1213.54,-247.544"/>
<polygon fill="gray" stroke="gray" points="1213.85,-251.033 1223.65,-247.008 1213.48,-244.043 1213.85,-251.033"/>
</g>
<!-- nid&#45;2b&#45;out&#45;&gt;nid&#45;1f -->
<g id="edge28" class="edge"><title>nid&#45;2b&#45;out&#45;&gt;nid&#45;1f</title>
<path fill="none" stroke="gray" stroke-dasharray="5,2" d="M167.463,-279.103C294.899,-230.492 573.196,-131.18 818,-90.8126 959.035,-67.5563 1128.36,-69.472 1212.37,-72.3844"/>
<polygon fill="gray" stroke="gray" points="1212.31,-75.8844 1222.43,-72.7523 1212.56,-68.889 1212.31,-75.8844"/>
</g>
<!-- nid&#45;21&#45;ampin&#45;43 -->
<g id="node33" class="node"><title>nid&#45;21&#45;ampin&#45;43</title>
<polygon fill="none" stroke="#c8c8c8" points="589.099,-471.813 456.95,-496.414 456.95,-447.211 589.099,-471.813"/>
<text text-anchor="middle" x="501" y="-466.213" font-family="Times,serif" font-size="14.00">0 (43)</text>
</g>
<!-- nid&#45;2b&#45;out&#45;&gt;nid&#45;21&#45;ampin&#45;43 -->
<g id="edge36" class="edge"><title>nid&#45;2b&#45;out&#45;&gt;nid&#45;21&#45;ampin&#45;43</title>
<path fill="none" stroke="#333333" d="M167.257,-341.791C224.697,-369.617 308.467,-408.453 384,-436.813 404.301,-444.435 427.061,-451.594 447.009,-457.426"/>
<polygon fill="#333333" stroke="#333333" points="446.274,-460.857 456.853,-460.265 448.214,-454.131 446.274,-460.857"/>
</g>
<!-- nid&#45;2a&#45;out -->
<g id="node30" class="node"><title>nid&#45;2a&#45;out</title>
<polygon fill="none" stroke="green" points="176.225,-244.513 15.7752,-244.513 15.7752,-169.112 176.225,-169.112 176.225,-244.513"/>
<text text-anchor="middle" x="96" y="-226.413" font-family="Times,serif" font-size="14.00">42</text>
<text text-anchor="middle" x="96" y="-209.613" font-family="Times,serif" font-size="14.00">[N/A] Line In at Ext Rear</text>
<text text-anchor="middle" x="96" y="-192.813" font-family="Times,serif" font-size="14.00">Stereo</text>
<text text-anchor="middle" x="96" y="-176.013" font-family="Times,serif" font-size="14.00">IN Detect</text>
</g>
<!-- nid&#45;2a&#45;out&#45;&gt;nid&#45;1e -->
<g id="edge24" class="edge"><title>nid&#45;2a&#45;out&#45;&gt;nid&#45;1e</title>
<path fill="none" stroke="gray" stroke-dasharray="5,2" d="M176.363,-209.395C399.222,-216.645 1026.59,-237.056 1212.47,-243.104"/>
<polygon fill="gray" stroke="gray" points="1212.43,-246.604 1222.54,-243.431 1212.66,-239.608 1212.43,-246.604"/>
</g>
<!-- nid&#45;2a&#45;out&#45;&gt;nid&#45;1f -->
<g id="edge29" class="edge"><title>nid&#45;2a&#45;out&#45;&gt;nid&#45;1f</title>
<path fill="none" stroke="gray" stroke-dasharray="5,2" d="M176.225,-185.348C308.127,-150.841 581.636,-84.5037 818,-60.8126 885.219,-54.0752 902.463,-59.211 970,-60.8126 1054.62,-62.8195 1152.78,-68.0601 1211.83,-71.5291"/>
<polygon fill="gray" stroke="gray" points="1211.84,-75.0359 1222.03,-72.1338 1212.25,-68.0482 1211.84,-75.0359"/>
</g>
<!-- nid&#45;21&#45;ampin&#45;42 -->
<g id="node34" class="node"><title>nid&#45;21&#45;ampin&#45;42</title>
<polygon fill="none" stroke="#c8c8c8" points="587.93,-403.813 457.535,-428.414 457.535,-379.211 587.93,-403.813"/>
<text text-anchor="middle" x="501" y="-398.213" font-family="Times,serif" font-size="14.00">1 (42)</text>
</g>
<!-- nid&#45;2a&#45;out&#45;&gt;nid&#45;21&#45;ampin&#45;42 -->
<g id="edge37" class="edge"><title>nid&#45;2a&#45;out&#45;&gt;nid&#45;21&#45;ampin&#45;42</title>
<path fill="none" stroke="#333333" d="M162.254,-244.126C243.342,-290.422 372.522,-363.913 384,-368.813 404.284,-377.471 427.41,-384.908 447.648,-390.672"/>
<polygon fill="#333333" stroke="#333333" points="446.753,-394.056 457.326,-393.365 448.63,-387.312 446.753,-394.056"/>
</g>
<!-- nid&#45;29&#45;out -->
<g id="node31" class="node"><title>nid&#45;29&#45;out</title>
<polygon fill="none" stroke="green" points="167.532,-144.513 24.468,-144.513 24.468,-69.1124 167.532,-69.1124 167.532,-144.513"/>
<text text-anchor="middle" x="96" y="-126.413" font-family="Times,serif" font-size="14.00">41</text>
<text text-anchor="middle" x="96" y="-109.613" font-family="Times,serif" font-size="14.00">[Fixed] Mic at Int N/A</text>
<text text-anchor="middle" x="96" y="-92.8126" font-family="Times,serif" font-size="14.00">Stereo</text>
<text text-anchor="middle" x="96" y="-76.0126" font-family="Times,serif" font-size="14.00">IN Detect</text>
</g>
<!-- nid&#45;29&#45;out&#45;&gt;nid&#45;1e -->
<g id="edge25" class="edge"><title>nid&#45;29&#45;out&#45;&gt;nid&#45;1e</title>
<path fill="none" stroke="#333333" d="M167.869,-115.186C382.503,-140.545 1022.3,-216.138 1211.65,-238.509"/>
<polygon fill="#333333" stroke="#333333" points="1211.29,-241.991 1221.63,-239.689 1212.11,-235.04 1211.29,-241.991"/>
</g>
<!-- nid&#45;29&#45;out&#45;&gt;nid&#45;1f -->
<g id="edge30" class="edge"><title>nid&#45;29&#45;out&#45;&gt;nid&#45;1f</title>
<path fill="none" stroke="#333333" d="M167.697,-79.9847C225.037,-59.7307 308.455,-33.6409 384,-22.8126 641.81,14.1405 710.546,-0.120438 970,-22.8126 1054.72,-30.2228 1151.59,-49.3864 1210.51,-62.2626"/>
<polygon fill="#333333" stroke="#333333" points="1209.82,-65.6957 1220.34,-64.4307 1211.33,-58.8599 1209.82,-65.6957"/>
</g>
<!-- nid&#45;21&#45;ampin&#45;41 -->
<g id="node35" class="node"><title>nid&#45;21&#45;ampin&#45;41</title>
<polygon fill="none" stroke="#c8c8c8" points="589.099,-335.813 456.95,-360.414 456.95,-311.211 589.099,-335.813"/>
<text text-anchor="middle" x="501" y="-330.213" font-family="Times,serif" font-size="14.00">2 (41)</text>
</g>
<!-- nid&#45;29&#45;out&#45;&gt;nid&#45;21&#45;ampin&#45;41 -->
<g id="edge38" class="edge"><title>nid&#45;29&#45;out&#45;&gt;nid&#45;21&#45;ampin&#45;41</title>
<path fill="none" stroke="#333333" d="M162.646,-144.115C242.533,-189.51 375.748,-265.208 448.581,-306.594"/>
<polygon fill="#333333" stroke="#333333" points="447.162,-309.814 457.585,-311.711 450.62,-303.728 447.162,-309.814"/>
</g>
<!-- nid&#45;30&#45;out -->
<g id="node32" class="node"><title>nid&#45;30&#45;out</title>
<polygon fill="none" stroke="green" points="961.752,-178.513 826.248,-178.513 826.248,-103.112 961.752,-103.112 961.752,-178.513"/>
<text text-anchor="middle" x="894" y="-160.413" font-family="Times,serif" font-size="14.00">48</text>
<text text-anchor="middle" x="894" y="-143.613" font-family="Times,serif" font-size="14.00">[N/A] Mic at Int N/A</text>
<text text-anchor="middle" x="894" y="-126.813" font-family="Times,serif" font-size="14.00">Stereo</text>
<text text-anchor="middle" x="894" y="-110.013" font-family="Times,serif" font-size="14.00">IN</text>
</g>
<!-- nid&#45;30&#45;out&#45;&gt;nid&#45;1e -->
<g id="edge27" class="edge"><title>nid&#45;30&#45;out&#45;&gt;nid&#45;1e</title>
<path fill="none" stroke="gray" stroke-dasharray="5,2" d="M962.004,-159.646C1033.02,-179.606 1143.84,-210.756 1209.94,-229.337"/>
<polygon fill="gray" stroke="gray" points="1209.18,-232.76 1219.76,-232.096 1211.08,-226.021 1209.18,-232.76"/>
</g>
<!-- nid&#45;30&#45;out&#45;&gt;nid&#45;1f -->
<g id="edge32" class="edge"><title>nid&#45;30&#45;out&#45;&gt;nid&#45;1f</title>
<path fill="none" stroke="gray" stroke-dasharray="5,2" d="M962.004,-128.861C1034.85,-115.867 1149.58,-95.4013 1214.97,-83.7377"/>
<polygon fill="gray" stroke="gray" points="1215.79,-87.1455 1225.02,-81.9438 1214.56,-80.2543 1215.79,-87.1455"/>
</g>
<!-- nid&#45;21&#45;ampin&#45;43&#45;&gt;nid&#45;21 -->
<g id="edge33" class="edge"><title>nid&#45;21&#45;ampin&#45;43&#45;&gt;nid&#45;21</title>
<path fill="none" stroke="#c8c8c8" d="M546.853,-464.012C622.956,-450.777 776.339,-424.102 850.685,-411.172"/>
<polygon fill="#c8c8c8" stroke="#c8c8c8" points="851.273,-412.846 855.899,-410.265 850.673,-409.398 851.273,-412.846"/>
</g>
<!-- nid&#45;21&#45;ampin&#45;42&#45;&gt;nid&#45;21 -->
<g id="edge34" class="edge"><title>nid&#45;21&#45;ampin&#45;42&#45;&gt;nid&#45;21</title>
<path fill="none" stroke="#c8c8c8" d="M588.291,-403.813C667.913,-403.813 783.121,-403.813 846.626,-403.813"/>
<polygon fill="#c8c8c8" stroke="#c8c8c8" points="846.858,-405.563 851.858,-403.813 846.858,-402.063 846.858,-405.563"/>
</g>
<!-- nid&#45;21&#45;ampin&#45;41&#45;&gt;nid&#45;21 -->
<g id="edge35" class="edge"><title>nid&#45;21&#45;ampin&#45;41&#45;&gt;nid&#45;21</title>
<path fill="none" stroke="#c8c8c8" d="M546.853,-343.613C622.956,-356.848 776.339,-383.524 850.685,-396.453"/>
<polygon fill="#c8c8c8" stroke="#c8c8c8" points="850.673,-398.228 855.899,-397.36 851.273,-394.779 850.673,-398.228"/>
</g>
<!-- nid&#45;3e -->
<g id="node37" class="node"><title>nid&#45;3e</title>
<polygon fill="none" stroke="red" points="1703,-779.813 1570.63,-761.813 1703,-743.813 1835.37,-761.813 1703,-779.813"/>
<polyline fill="none" stroke="red" points="1582.53,-763.43 1582.53,-760.196 "/>
<polyline fill="none" stroke="red" points="1691.11,-745.43 1714.89,-745.43 "/>
<polyline fill="none" stroke="red" points="1823.47,-760.196 1823.47,-763.43 "/>
<polyline fill="none" stroke="red" points="1714.89,-778.196 1691.11,-778.196 "/>
<text text-anchor="middle" x="1703" y="-756.213" font-family="Times,serif" font-size="14.00">Unknown Node 62</text>
</g>
<!-- nid&#45;3e&#45;&gt;nid&#45;24&#45;in -->
<g id="edge40" class="edge"><title>nid&#45;3e&#45;&gt;nid&#45;24&#45;in</title>
<path fill="none" stroke="gray" stroke-dasharray="5,2" d="M1756.73,-772.603C1827.66,-787.12 1954.94,-813.169 2041.88,-830.96"/>
<polygon fill="gray" stroke="gray" points="2041.24,-834.403 2051.74,-832.979 2042.65,-827.545 2041.24,-834.403"/>
</g>
<!-- nid&#45;33&#45;in -->
<g id="node41" class="node"><title>nid&#45;33&#45;in</title>
<polygon fill="none" stroke="green" points="2214.29,-787.513 2055.71,-787.513 2055.71,-712.112 2214.29,-712.112 2214.29,-787.513"/>
<text text-anchor="middle" x="2135" y="-769.413" font-family="Times,serif" font-size="14.00">51</text>
<text text-anchor="middle" x="2135" y="-752.613" font-family="Times,serif" font-size="14.00">[N/A] Speaker at Int N/A</text>
<text text-anchor="middle" x="2135" y="-735.813" font-family="Times,serif" font-size="14.00">Mono</text>
<text text-anchor="middle" x="2135" y="-719.013" font-family="Times,serif" font-size="14.00">OUT</text>
</g>
<!-- nid&#45;3e&#45;&gt;nid&#45;33&#45;in -->
<g id="edge44" class="edge"><title>nid&#45;3e&#45;&gt;nid&#45;33&#45;in</title>
<path fill="none" stroke="#333333" d="M1813.06,-758.769C1885.01,-756.761 1978.05,-754.165 2045.42,-752.285"/>
<polygon fill="#333333" stroke="#333333" points="2045.69,-755.779 2055.58,-752.001 2045.49,-748.781 2045.69,-755.779"/>
</g>
</g>
</svg>
